<svg xmlns="http://www.w3.org/2000/svg" xmlns:xlink="http://www.w3.org/1999/xlink" width="582" height="582" viewBox="0 0 582 582">
    <defs>
        <style>
            .cls-1,.cls-2,.cls-24,.cls-3,.cls-30,.cls-4,.cls-9{fill:none}.cls-1{stroke:#404041}.cls-1,.cls-24,.cls-3,.cls-30,.cls-9{stroke-miterlimit:10}.cls-1,.cls-30,.cls-4,.cls-9{stroke-width:7.76px}.cls-3,.cls-30,.cls-4{stroke:#231f20}.cls-24,.cls-3{stroke-width:5.173px}.cls-4{stroke-linejoin:round}.cls-14,.cls-22,.cls-35,.cls-5{fill:#fff}.cls-6{clip-path:url(#clip-path)}.cls-7{fill:url(#linear-gradient)}.cls-15,.cls-23,.cls-27,.cls-28,.cls-34,.cls-8{fill:#231f20}.cls-16,.cls-8{opacity:.2}.cls-24,.cls-9{stroke:#fff}.cls-10{clip-path:url(#clip-path-2)}.cls-11{fill:url(#linear-gradient-2)}.cls-12{clip-path:url(#clip-path-3)}.cls-13{fill:url(#linear-gradient-3)}.cls-14{opacity:.1}.cls-15{opacity:.15}.cls-16{fill:url(#linear-gradient-4)}.cls-17{clip-path:url(#clip-path-4)}.cls-18{fill:url(#linear-gradient-5)}.cls-19{clip-path:url(#clip-path-5)}.cls-20{opacity:.75}.cls-21,.cls-28{opacity:.25}.cls-21{fill:url(#linear-gradient-6)}.cls-22,.cls-34{opacity:.3}.cls-23{opacity:.05}.cls-25{clip-path:url(#clip-path-6)}.cls-26{fill:url(#linear-gradient-7)}.cls-27{opacity:.5}.cls-29{fill:#f1f1f2;opacity:.8}.cls-30{opacity:.4}.cls-31{fill:url(#linear-gradient-9)}.cls-32{clip-path:url(#clip-path-8)}.cls-33{fill:url(#linear-gradient-10)}.cls-35{opacity:0}.cls-36{clip-path:url(#clip-path-9)}.cls-37{fill:url(#linear-gradient-11)}.cls-38{filter:url(#Ellipse_81)}
        </style>
        <filter id="Ellipse_81" width="582" height="582" x="0" y="0" filterUnits="userSpaceOnUse">
            <feOffset dy="10"/>
            <feGaussianBlur result="blur" stdDeviation="25"/>
            <feFlood flood-opacity=".349"/>
            <feComposite in2="blur" operator="in"/>
            <feComposite in="SourceGraphic"/>
        </filter>
        <clipPath id="clip-path">
            <path id="Path_144" d="M1793.029 438.148l32.21 15.617a32.12 32.12 0 0 1 18.108 28.9v56.971a32.121 32.121 0 0 1-17.853 28.777l-31.353 15.545z" class="cls-1" data-name="Path 144" transform="translate(-1793.029 -438.148)"/>
        </clipPath>
        <linearGradient id="linear-gradient" x1="-.515" x2="1.515" y1=".698" y2=".302" gradientUnits="objectBoundingBox">
            <stop offset="0" stop-color="#3f5781"/>
            <stop offset="1" stop-color="#5e9496"/>
        </linearGradient>
        <clipPath id="clip-path-2">
            <path id="Path_148" d="M1459.138 438.148l-32.21 15.617a32.12 32.12 0 0 0-18.108 28.9v56.971a32.12 32.12 0 0 0 17.852 28.777l31.353 15.545z" class="cls-1" data-name="Path 148" transform="translate(-1408.821 -438.148)"/>
        </clipPath>
        <linearGradient id="linear-gradient-2" x1="-54.688" x2="-52.658" y1=".698" y2=".302" xlink:href="#linear-gradient"/>
        <clipPath id="clip-path-3">
            <path id="Path_154" d="M1812.35 669.585c1.072-1.237 2.171-2.45 3.216-3.711 1.124-1.359 2.19-2.765 3.282-4.15 1.02-1.3 2.067-2.57 3.057-3.889 1.056-1.408 2.051-2.86 3.073-4.294.96-1.348 1.948-2.676 2.878-4.047 1-1.468 1.928-2.981 2.886-4.476.889-1.385 1.808-2.75 2.665-4.157.924-1.515 1.782-3.074 2.668-4.614.824-1.434 1.682-2.847 2.474-4.3.86-1.582 1.654-3.2 2.476-4.81.746-1.454 1.524-2.888 2.234-4.362.8-1.649 1.522-3.338 2.277-5.009.665-1.475 1.367-2.932 2-4.425.722-1.7 1.37-3.443 2.049-5.169.59-1.5 1.217-2.981 1.773-4.5.648-1.764 1.217-3.563 1.82-5.349.511-1.517 1.06-3.015 1.539-4.547.569-1.826 1.058-3.686 1.578-5.532.431-1.525.9-3.032 1.3-4.571.488-1.891.892-3.814 1.329-5.723.348-1.529.741-3.041 1.057-4.582.4-1.964.718-3.958 1.066-5.941.266-1.517.577-3.018.812-4.548.319-2.086.547-4.2.8-6.307.179-1.453.406-2.891.554-4.353.24-2.366.383-4.76.546-7.149.083-1.225.217-2.435.279-3.665.174-3.441.256-6.905.265-10.385 0-.194.014-.383.014-.576 0-107.379-79.661-196.1-183.1-210.426-.116-.016-.234-.028-.35-.044a205.302 205.302 0 0 0-9.61-1.1c-1.09-.1-2.187-.166-3.281-.25-2.339-.176-4.679-.344-7.039-.444-1.643-.072-3.3-.092-4.95-.125-1.391-.027-2.771-.106-4.17-.106-.637 0-1.269.033-1.907.038-.438 0-.87-.021-1.309-.014-.948.014-1.884.071-2.829.1a205.06 205.06 0 0 0-4.09.141 222 222 0 0 0-4.419.265c-1.353.092-2.706.182-4.053.3-1.467.128-2.924.283-4.381.44-1.333.143-2.665.283-3.99.452-1.453.183-2.9.4-4.341.612-1.314.194-2.629.382-3.936.6-1.438.24-2.865.512-4.292.782-1.295.243-2.592.48-3.878.747-1.425.3-2.837.625-4.25.949-1.268.291-2.539.572-3.8.886-1.418.353-2.823.74-4.229 1.121-1.239.336-2.479.661-3.709 1.017-1.4.406-2.78.848-4.167 1.282-1.216.381-2.437.75-3.645 1.153-1.377.458-2.737.953-4.1 1.44-1.2.425-2.4.838-3.584 1.286-1.366.514-2.713 1.066-4.066 1.608-1.154.462-2.317.909-3.462 1.392-1.366.575-2.71 1.188-4.062 1.791-1.114.5-2.235.978-3.339 1.493-1.35.632-2.679 1.3-4.014 1.96-1.077.53-2.162 1.044-3.228 1.591-1.344.691-2.663 1.423-3.989 2.141-1.033.56-2.08 1.1-3.1 1.678-1.36.766-2.693 1.574-4.034 2.369-.96.569-1.933 1.118-2.882 1.7-1.448.89-2.865 1.821-4.289 2.743-.82.531-9.031 6.143-9.031 6.143s-38.714-29.5-54.164-37.549a23.207 23.207 0 0 0-33.927 20.582v189.254c0 112.65 87.672 204.773 198.5 211.989.641.044 1.276.108 1.917.146 2.128.12 4.274.164 6.416.221 1.327.036 2.642.127 3.975.137.283 0 .562-.016.844-.016s.565.022.85.022c1.6 0 3.172-.085 4.759-.121 1.79-.038 3.585-.051 5.363-.135 1.862-.087 3.7-.246 5.553-.381 1.758-.129 3.525-.23 5.271-.4 1.834-.179 3.645-.428 5.465-.654 1.738-.216 3.486-.405 5.212-.663 1.8-.268 3.579-.606 5.365-.92 1.714-.3 3.435-.575 5.133-.916 1.78-.358 3.535-.783 5.3-1.186 1.675-.382 3.359-.737 5.017-1.158 1.75-.444 3.471-.955 5.2-1.442 1.642-.462 3.295-.9 4.919-1.4 1.715-.527 3.4-1.121 5.1-1.69 1.606-.54 3.224-1.052 4.814-1.629 1.676-.607 3.319-1.28 4.974-1.928 1.573-.617 3.16-1.207 4.715-1.859 1.638-.686 3.24-1.437 4.855-2.162 1.533-.689 3.079-1.352 4.591-2.075 1.592-.762 3.148-1.584 4.717-2.385 1.5-.763 3.01-1.5 4.487-2.3 1.538-.83 3.037-1.72 4.551-2.586 1.463-.837 2.941-1.649 4.383-2.52 1.5-.906 2.957-1.87 4.43-2.811 1.41-.9 2.836-1.774 4.222-2.706 1.454-.978 2.865-2.013 4.293-3.024 1.36-.964 2.738-1.9 4.074-2.9 1.4-1.045 2.763-2.146 4.14-3.225 1.308-1.025 2.636-2.025 3.919-3.08 1.361-1.118 2.676-2.292 4.009-3.444 1.245-1.076 2.511-2.128 3.731-3.232 1.312-1.187 2.573-2.428 3.854-3.648 1.187-1.129 2.4-2.234 3.557-3.391 1.254-1.25 2.455-2.549 3.677-3.828 1.131-1.185 2.285-2.347 3.39-3.557 1.188-1.303 2.326-2.661 3.487-4z" class="cls-1" data-name="Path 154" transform="translate(-1439.319 -317.943)"/>
        </clipPath>
        <linearGradient id="linear-gradient-3" x1="-.006" x2="1.006" y1=".994" y2=".006" gradientUnits="objectBoundingBox">
            <stop offset=".167" stop-color="#044e85"/>
            <stop offset=".728" stop-color="#78c8a7"/>
        </linearGradient>
        <linearGradient id="linear-gradient-4" x1="-14.643" x2="-13.643" y1=".5" y2=".5" gradientUnits="objectBoundingBox">
            <stop offset="0" stop-color="#fff" stop-opacity="0"/>
            <stop offset="1" stop-color="#fff"/>
        </linearGradient>
        <clipPath id="clip-path-4">
            <path id="Path_166" d="M1832.2 517.5c0 105.946-78.375 191.831-184.321 191.831s-184.153-85.886-184.153-191.831 78.211-119.313 184.155-119.313S1832.2 411.554 1832.2 517.5z" class="cls-1" data-name="Path 166" transform="translate(-1463.726 -398.186)"/>
        </clipPath>
        <linearGradient id="linear-gradient-5" x1=".194" x2=".806" y1="1.134" y2="-.134" gradientUnits="objectBoundingBox">
            <stop offset="0" stop-color="#25a9e0"/>
            <stop offset="1" stop-color="#dae255"/>
        </linearGradient>
        <clipPath id="clip-path-5">
            <path id="Path_158" d="M1820.716 511.67c0 99.621-74.084 180.38-174.231 180.38s-174.074-80.758-174.074-180.38 73.929-112.191 174.074-112.191 174.231 12.571 174.231 112.191z" class="cls-2" data-name="Path 158" transform="translate(-1472.411 -399.479)"/>
        </clipPath>
        <linearGradient id="linear-gradient-6" x2="1" y1=".5" y2=".5" gradientUnits="objectBoundingBox">
            <stop offset="0" stop-color="#fff"/>
            <stop offset="1" stop-color="#fff"/>
        </linearGradient>
        <clipPath id="clip-path-6">
            <circle id="SVGID" cx="34.044" cy="34.044" r="34.044" class="cls-3"/>
        </clipPath>
        <linearGradient id="linear-gradient-7" x1=".146" x2=".854" y1=".854" y2=".146" gradientUnits="objectBoundingBox">
            <stop offset="0" stop-color="#044e85"/>
            <stop offset="1" stop-color="#78c8a7"/>
        </linearGradient>
        <linearGradient id="linear-gradient-9" x1=".529" x2=".379" y1=".421" y2=".798" gradientUnits="objectBoundingBox">
            <stop offset="0" stop-color="#231f20" stop-opacity=".051"/>
            <stop offset="1" stop-color="#231f20" stop-opacity=".149"/>
        </linearGradient>
        <clipPath id="clip-path-8">
            <path id="Path_164" d="M1565.488 577.023h131.977c0 30.559-29.341 44.707-68.494 44.707-34.471 0-63.483-15.585-63.483-44.707z" class="cls-4" data-name="Path 164" transform="translate(-1565.488 -577.023)"/>
        </clipPath>
        <linearGradient id="linear-gradient-10" x1=".5" x2=".5" y1="1" gradientUnits="objectBoundingBox">
            <stop offset="0" stop-color="#14819c"/>
            <stop offset="1" stop-color="#231f20"/>
        </linearGradient>
        <clipPath id="clip-path-9">
            <path id="Intersection_2" d="M0 15.212A20.432 20.432 0 0 1 2.688 5.051a20.527 20.527 0 0 1 31.321 25.634A20.525 20.525 0 0 1 0 15.212z" class="cls-2" data-name="Intersection 2"/>
        </clipPath>
        <linearGradient id="linear-gradient-11" x2="1" y1=".5" y2=".5" xlink:href="#linear-gradient"/>
    </defs>
    <g id="BotRobot" transform="translate(-62.516 -143)">
        <g class="cls-38" transform="translate(62.52 143)">
            <circle id="Ellipse_81-2" cx="216" cy="216" r="216" class="cls-5" data-name="Ellipse 81" transform="translate(75 65)"/>
        </g>
        <g id="Group_135" data-name="Group 135" transform="translate(105 211.484)">
            <g id="Group_116" data-name="Group 116" transform="translate(446.177 139.593)">
                <g id="Group_115" class="cls-6" data-name="Group 115">
                    <path id="Rectangle_28" d="M0 0h50.318v148.687H0z" class="cls-7" data-name="Rectangle 28" transform="translate(.001 -2.876)"/>
                    <path id="Path_142" d="M1795.52 583.571l-10.8-113.723 77.941 33.65-3.869 66.268z" class="cls-8" data-name="Path 142" transform="translate(-1794.369 -433.035)"/>
                    <path id="Path_143" d="M1787.645 441.559l32.209 15.616a32.121 32.121 0 0 1 18.108 28.9v56.969a32.119 32.119 0 0 1-17.853 28.777l-31.351 15.545z" class="cls-9" data-name="Path 143" transform="translate(-1793.897 -437.598)"/>
                </g>
                <path id="Path_145" d="M1793.029 438.148l32.21 15.617a32.12 32.12 0 0 1 18.108 28.9v56.971a32.121 32.121 0 0 1-17.853 28.777l-31.353 15.545z" class="cls-1" data-name="Path 145" transform="translate(-1793.029 -438.148)"/>
            </g>
            <g id="Group_118" data-name="Group 118" transform="translate(0 139.593)">
                <g id="Group_117" class="cls-10" data-name="Group 117">
                    <path id="Rectangle_29" d="M0 0h50.318v148.687H0z" class="cls-11" data-name="Rectangle 29" transform="rotate(-180 25.159 72.906)"/>
                    <path id="Path_146" d="M1456.357 584.594l-1.194-62.816-65.947-17.256 3.869 66.268z" class="cls-8" data-name="Path 146" transform="translate(-1411.983 -427.443)"/>
                    <path id="Path_147" d="M1464.524 441.559l-32.21 15.616a32.121 32.121 0 0 0-18.108 28.9v56.969a32.119 32.119 0 0 0 17.852 28.777l31.351 15.545z" class="cls-9" data-name="Path 147" transform="translate(-1407.952 -437.598)"/>
                </g>
                <path id="Path_149" d="M1459.138 438.148l-32.21 15.617a32.12 32.12 0 0 0-18.108 28.9v56.971a32.12 32.12 0 0 0 17.852 28.777l31.353 15.545z" class="cls-1" data-name="Path 149" transform="translate(-1408.821 -438.148)"/>
            </g>
            <g id="Group_120" data-name="Group 120" transform="translate(35.417)">
                <g id="Group_119" class="cls-12" data-name="Group 119">
                    <path id="Rectangle_30" d="M0 0h457.165v467.959H0z" class="cls-13" data-name="Rectangle 30" transform="translate(-27.134 -31.556)"/>
                    <ellipse id="Ellipse_64" cx="280.943" cy="183.07" class="cls-8" data-name="Ellipse 64" rx="280.943" ry="183.07" transform="translate(-14.095 318.999)"/>
                    <ellipse id="Ellipse_65" cx="284.959" cy="230.413" class="cls-14" data-name="Ellipse 65" rx="284.959" ry="230.413" transform="translate(-109.654 -142.538)"/>
                    <path id="Path_150" d="M1439.732 424.974l.636 108.331c2.812-52.68 24.286-106.366 31.189-125.54 10.8-30.008-31.825-49.9-31.825-49.9z" class="cls-15" data-name="Path 150" transform="translate(-1439.252 -311.504)"/>
                    <path id="Path_151" d="M1433.028 385.606v150.037c0 112.65 87.67 204.771 198.5 211.989.64.044 1.275.108 1.917.145 2.126.12 4.272.165 6.416.221 1.328.037 2.642.127 3.975.137.283 0 .561-.016.843-.015s.566.022.851.022c1.6 0 3.172-.085 4.759-.121 1.788-.039 3.584-.052 5.362-.136 1.863-.087 3.7-.245 5.554-.381 1.758-.128 3.525-.229 5.271-.4 1.834-.18 3.645-.429 5.465-.654 1.739-.217 3.486-.405 5.212-.663 1.8-.268 3.579-.606 5.365-.92 1.713-.3 3.434-.575 5.133-.916 1.78-.359 3.535-.784 5.3-1.186 1.673-.382 3.359-.737 5.017-1.159 1.749-.444 3.471-.955 5.2-1.441 1.643-.462 3.295-.9 4.921-1.4 1.714-.528 3.4-1.121 5.1-1.69 1.607-.54 3.225-1.053 4.815-1.629 1.675-.607 3.318-1.28 4.974-1.928 1.572-.618 3.16-1.207 4.715-1.86 1.636-.686 3.239-1.435 4.855-2.162 1.532-.687 3.078-1.351 4.591-2.075 1.592-.762 3.147-1.584 4.717-2.384 1.5-.764 3.01-1.5 4.487-2.3 1.538-.83 3.037-1.72 4.551-2.586 1.463-.837 2.942-1.65 4.383-2.52 1.5-.906 2.957-1.87 4.43-2.811 1.41-.9 2.836-1.776 4.222-2.707 1.454-.977 2.865-2.011 4.293-3.024 1.359-.963 2.738-1.9 4.074-2.9 1.4-1.045 2.763-2.145 4.14-3.224 1.308-1.025 2.636-2.025 3.918-3.081 1.362-1.118 2.677-2.292 4.01-3.443 1.244-1.077 2.511-2.129 3.731-3.232 1.311-1.188 2.572-2.428 3.854-3.649 1.187-1.129 2.4-2.234 3.556-3.391 1.254-1.248 2.455-2.548 3.677-3.828 1.131-1.185 2.287-2.346 3.391-3.557 1.193-1.308 2.331-2.666 3.492-4 1.073-1.237 2.172-2.45 3.216-3.713 1.125-1.358 2.191-2.764 3.283-4.149 1.02-1.3 2.066-2.57 3.057-3.89 1.056-1.406 2.051-2.86 3.072-4.293.96-1.348 1.948-2.676 2.878-4.047 1-1.468 1.929-2.981 2.887-4.476.889-1.385 1.808-2.751 2.665-4.157.923-1.516 1.782-3.074 2.667-4.614.825-1.434 1.681-2.848 2.475-4.3.86-1.582 1.654-3.205 2.476-4.81.746-1.455 1.522-2.889 2.234-4.363.8-1.648 1.522-3.336 2.276-5.009.667-1.475 1.368-2.931 2-4.425.722-1.7 1.37-3.443 2.048-5.169.59-1.5 1.216-2.98 1.773-4.5.648-1.764 1.217-3.564 1.819-5.349.512-1.517 1.061-3.016 1.539-4.546.57-1.826 1.058-3.686 1.579-5.532.431-1.525.9-3.033 1.3-4.572.488-1.889.891-3.812 1.327-5.723.35-1.529.741-3.04 1.058-4.581.4-1.964.718-3.959 1.066-5.941.266-1.518.577-3.019.812-4.548.319-2.087.547-4.2.8-6.308.179-1.453.405-2.891.553-4.351.242-2.367.385-4.761.547-7.15.084-1.224.216-2.435.279-3.665.174-3.44.255-6.9.263-10.385 0-.193.015-.383.015-.575 0-107.379-79.662-196.1-183.1-210.427-.116-.016-.233-.03-.35-.044-89.244-10.729-145.629 29.476-147.053 30.4" class="cls-9" data-name="Path 151" transform="translate(-1440.334 -317.07)"/>
                    <path id="Path_152" d="M1526.011 362.412c-6.954-3.816-13.474-7.9-19.977-11.929-6.479-4.044-12.9-8.048-19.378-11.774a128.612 128.612 0 0 0-19.82-9.636 38.747 38.747 0 0 0-10.4-2.326 20.267 20.267 0 0 0-10.767 2.111c2.258-3.339 6.209-5.537 10.334-6.514a32.243 32.243 0 0 1 12.556-.144 70.287 70.287 0 0 1 22.581 8.7 115.192 115.192 0 0 1 19.132 13.941 97.752 97.752 0 0 1 15.739 17.571z" class="cls-5" data-name="Path 152" transform="translate(-1438.294 -317.344)"/>
                    <path id="Path_153" d="M1622.385 340.843l-.066 50.675a12.921 12.921 0 0 0 13.343 12.909c72.273-2.15 132.869 22.995 177.841 41.229 16.143 6.545 30.121-15.956 18.327-28.777-37.255-40.5-101.412-92.593-196.662-89.328a13.282 13.282 0 0 0-12.783 13.292z" class="cls-16" data-name="Path 153" transform="translate(-1409.803 -316.417)"/>
                </g>
                <path id="Path_155" d="M1812.35 669.585c1.072-1.237 2.171-2.45 3.216-3.711 1.124-1.359 2.19-2.765 3.282-4.15 1.02-1.3 2.067-2.57 3.057-3.889 1.056-1.408 2.051-2.86 3.073-4.294.96-1.348 1.948-2.676 2.878-4.047 1-1.468 1.928-2.981 2.886-4.476.889-1.385 1.808-2.75 2.665-4.157.924-1.515 1.782-3.074 2.668-4.614.824-1.434 1.682-2.847 2.474-4.3.86-1.582 1.654-3.2 2.476-4.81.746-1.454 1.524-2.888 2.234-4.362.8-1.649 1.522-3.338 2.277-5.009.665-1.475 1.367-2.932 2-4.425.722-1.7 1.37-3.443 2.049-5.169.59-1.5 1.217-2.981 1.773-4.5.648-1.764 1.217-3.563 1.82-5.349.511-1.517 1.06-3.015 1.539-4.547.569-1.826 1.058-3.686 1.578-5.532.431-1.525.9-3.032 1.3-4.571.488-1.891.892-3.814 1.329-5.723.348-1.529.741-3.041 1.057-4.582.4-1.964.718-3.958 1.066-5.941.266-1.517.577-3.018.812-4.548.319-2.086.547-4.2.8-6.307.179-1.453.406-2.891.554-4.353.24-2.366.383-4.76.546-7.149.083-1.225.217-2.435.279-3.665.174-3.441.256-6.905.265-10.385 0-.194.014-.383.014-.576 0-107.379-79.661-196.1-183.1-210.426-.116-.016-.234-.028-.35-.044a205.302 205.302 0 0 0-9.61-1.1c-1.09-.1-2.187-.166-3.281-.25-2.339-.176-4.679-.344-7.039-.444-1.643-.072-3.3-.092-4.95-.125-1.391-.027-2.771-.106-4.17-.106-.637 0-1.269.033-1.907.038-.438 0-.87-.021-1.309-.014-.948.014-1.884.071-2.829.1a205.06 205.06 0 0 0-4.09.141 222 222 0 0 0-4.419.265c-1.353.092-2.706.182-4.053.3-1.467.128-2.924.283-4.381.44-1.333.143-2.665.283-3.99.452-1.453.183-2.9.4-4.341.612-1.314.194-2.629.382-3.936.6-1.438.24-2.865.512-4.292.782-1.295.243-2.592.48-3.878.747-1.425.3-2.837.625-4.25.949-1.268.291-2.539.572-3.8.886-1.418.353-2.823.74-4.229 1.121-1.239.336-2.479.661-3.709 1.017-1.4.406-2.78.848-4.167 1.282-1.216.381-2.437.75-3.645 1.153-1.377.458-2.737.953-4.1 1.44-1.2.425-2.4.838-3.584 1.286-1.366.514-2.713 1.066-4.066 1.608-1.154.462-2.317.909-3.462 1.392-1.366.575-2.71 1.188-4.062 1.791-1.114.5-2.235.978-3.339 1.493-1.35.632-2.679 1.3-4.014 1.96-1.077.53-2.162 1.044-3.228 1.591-1.344.691-2.663 1.423-3.989 2.141-1.033.56-2.08 1.1-3.1 1.678-1.36.766-2.693 1.574-4.034 2.369-.96.569-1.933 1.118-2.882 1.7-1.448.89-2.865 1.821-4.289 2.743-.82.531-9.031 6.143-9.031 6.143s-38.714-29.5-54.164-37.549a23.207 23.207 0 0 0-33.927 20.582v189.254c0 112.65 87.672 204.773 198.5 211.989.641.044 1.276.108 1.917.146 2.128.12 4.274.164 6.416.221 1.327.036 2.642.127 3.975.137.283 0 .562-.016.844-.016s.565.022.85.022c1.6 0 3.172-.085 4.759-.121 1.79-.038 3.585-.051 5.363-.135 1.862-.087 3.7-.246 5.553-.381 1.758-.129 3.525-.23 5.271-.4 1.834-.179 3.645-.428 5.465-.654 1.738-.216 3.486-.405 5.212-.663 1.8-.268 3.579-.606 5.365-.92 1.714-.3 3.435-.575 5.133-.916 1.78-.358 3.535-.783 5.3-1.186 1.675-.382 3.359-.737 5.017-1.158 1.75-.444 3.471-.955 5.2-1.442 1.642-.462 3.295-.9 4.919-1.4 1.715-.527 3.4-1.121 5.1-1.69 1.606-.54 3.224-1.052 4.814-1.629 1.676-.607 3.319-1.28 4.974-1.928 1.573-.617 3.16-1.207 4.715-1.859 1.638-.686 3.24-1.437 4.855-2.162 1.533-.689 3.079-1.352 4.591-2.075 1.592-.762 3.148-1.584 4.717-2.385 1.5-.763 3.01-1.5 4.487-2.3 1.538-.83 3.037-1.72 4.551-2.586 1.463-.837 2.941-1.649 4.383-2.52 1.5-.906 2.957-1.87 4.43-2.811 1.41-.9 2.836-1.774 4.222-2.706 1.454-.978 2.865-2.013 4.293-3.024 1.36-.964 2.738-1.9 4.074-2.9 1.4-1.045 2.763-2.146 4.14-3.225 1.308-1.025 2.636-2.025 3.919-3.08 1.361-1.118 2.676-2.292 4.009-3.444 1.245-1.076 2.511-2.128 3.731-3.232 1.312-1.187 2.573-2.428 3.854-3.648 1.187-1.129 2.4-2.234 3.557-3.391 1.254-1.25 2.455-2.549 3.677-3.828 1.131-1.185 2.285-2.347 3.39-3.557 1.188-1.303 2.326-2.661 3.487-4z" class="cls-1" data-name="Path 155" transform="translate(-1439.319 -317.943)"/>
            </g>
            <g id="Group_132" data-name="Group 132" transform="translate(63.761 93.185)">
                <g id="Group_131" class="cls-17" data-name="Group 131">
                    <path id="Rectangle_31" d="M0 0h386.155v322.418H0z" class="cls-18" data-name="Rectangle 31" transform="translate(-5.59 -4.506)"/>
                    <g id="Group_123" data-name="Group 123" transform="translate(10.086 1.502)">
                        <g id="Group_122" class="cls-19" data-name="Group 122">
                            <g id="Group_121" class="cls-20" data-name="Group 121" transform="translate(37.632 5.163)">
                                <path id="Path_156" d="M1811.07 473.3c-15.307-46.507-64.7-70.661-160.382-69.319-69.035.969-141.685 10.31-145.8 51.888-2.282 23.082 47.093-21.171 97.669 11.194 21.482 13.747 38.578 61.151 59.855 102.794a34 34 0 0 0 30.266 18.567h21.426a9.655 9.655 0 0 1 9.656 9.655v6.867a56.774 56.774 0 0 1-3.535 20.191c-2.255 5.966 1.193 12.674 7.478 13.764q1.171.2 2.361.344c74.236 8.768 94.847-123.895 81.006-165.945z" class="cls-21" data-name="Path 156" transform="translate(-1504.816 -403.925)"/>
                            </g>
                            <path id="Path_157" d="M1545.393 421.967c-5.674 1.611-4.1 10.049 1.778 9.528 52.387-4.632 127.736-.043 186.126 22.664 40.81 15.87 53.143 57 49.209 105.83-.467 5.788 7.806 7.4 9.495 1.848C1806.747 513.308 1806.8 453.7 1756.3 430c-55.812-26.19-155.645-23.714-210.907-8.033z" class="cls-22" data-name="Path 157" transform="translate(-1461.209 -397.748)"/>
                        </g>
                    </g>
                    <circle id="Ellipse_66" cx="45.729" cy="45.729" r="45.729" class="cls-23" data-name="Ellipse 66" transform="translate(66.468 69.992)"/>
                    <circle id="Ellipse_67" cx="45.729" cy="45.729" r="45.729" class="cls-23" data-name="Ellipse 67" transform="translate(209.408 69.992)"/>
                    <circle id="SVGID-3" cx="34.044" cy="34.044" r="34.044" class="cls-24" data-name="SVGID" transform="translate(224.445 77.522)"/>
                    <circle id="SVGID-4" cx="34.044" cy="34.044" r="34.044" class="cls-24" data-name="SVGID" transform="translate(80.798 77.522)"/>
                    <g id="Group_125" data-name="Group 125" transform="translate(220.596 81.606)">
                        <g id="Group_124" class="cls-25" data-name="Group 124">
                            <circle id="Ellipse_68" cx="35.327" cy="35.327" r="35.327" class="cls-26" data-name="Ellipse 68" transform="translate(-1.283 -1.283)"/>
                            <path id="Path_159" d="M1719.434 508.16a31.373 31.373 0 0 0-62.747 0l-7.894-41.125 68.6 4.746 3.882 23.439z" class="cls-27" data-name="Path 159" transform="translate(-1654.472 -468.687)"/>
                            <circle id="Ellipse_69" cx="41.614" cy="41.614" r="41.614" class="cls-28" data-name="Ellipse 69" transform="translate(-36.187 21.814)"/>
                            <circle id="SVGID-5" cx="15.246" cy="15.246" r="15.246" class="cls-3" data-name="SVGID" transform="translate(18.798 18.798)"/>
                            <circle id="Ellipse_70" cx="7.517" cy="7.517" r="7.517" class="cls-29" data-name="Ellipse 70" transform="translate(37.303 16.605)"/>
                            <circle id="Ellipse_71" cx="3.701" cy="3.701" r="3.701" class="cls-29" data-name="Ellipse 71" transform="translate(23.109 36.092)"/>
                        </g>
                        <circle id="SVGID-6" cx="34.044" cy="34.044" r="34.044" class="cls-3" data-name="SVGID"/>
                    </g>
                    <g id="Group_127" data-name="Group 127" transform="translate(77.824 81.606)">
                        <g id="Group_126" class="cls-25" data-name="Group 126">
                            <circle id="Ellipse_72" cx="35.327" cy="35.327" r="35.327" class="cls-26" data-name="Ellipse 72" transform="translate(-1.283 -1.283)"/>
                            <path id="Path_160" d="M1596.492 508.16a31.374 31.374 0 0 0-62.748 0l-7.893-41.125 68.594 4.746 3.882 23.439z" class="cls-27" data-name="Path 160" transform="translate(-1531.53 -468.687)"/>
                            <circle id="Ellipse_73" cx="41.614" cy="41.614" r="41.614" class="cls-28" data-name="Ellipse 73" transform="translate(-36.187 21.814)"/>
                            <circle id="SVGID-7" cx="15.246" cy="15.246" r="15.246" class="cls-3" data-name="SVGID" transform="translate(18.798 18.798)"/>
                            <circle id="Ellipse_74" cx="7.517" cy="7.517" r="7.517" class="cls-29" data-name="Ellipse 74" transform="translate(37.303 16.605)"/>
                            <circle id="Ellipse_75" cx="3.701" cy="3.701" r="3.701" class="cls-29" data-name="Ellipse 75" transform="translate(23.109 36.092)"/>
                        </g>
                        <circle id="SVGID-8" cx="34.044" cy="34.044" r="34.044" class="cls-3" data-name="SVGID"/>
                    </g>
                    <path id="Path_161" d="M1836.814 512.927c0 105.945-78.375 191.831-184.321 191.831s-184.156-85.887-184.156-191.831 78.211-119.313 184.156-119.313 184.321 13.368 184.321 119.313z" class="cls-30" data-name="Path 161" transform="translate(-1462.982 -398.923)"/>
                    <g id="Group_128" data-name="Group 128" transform="translate(21.665 156.643)">
                        <path id="Path_162" d="M1655.4 671.908a179.83 179.83 0 0 0 25.427-1.8c5.091-.726 4.743-8.159-.389-8.484-83.814-5.309-157.9-59.383-189.92-126.112-2.227-4.642-9.279-2.089-7.982 2.894A178.685 178.685 0 0 0 1655.4 671.908z" class="cls-31" data-name="Path 162" transform="translate(-1482.382 -533.073)"/>
                    </g>
                    <g id="Group_130" data-name="Group 130" transform="translate(118.175 207.682)">
                        <g id="Group_129" class="cls-32" data-name="Group 129">
                            <path id="Rectangle_32" d="M0 0h160.288v61.305H0z" class="cls-33" data-name="Rectangle 32" transform="translate(-16.321 -15.463)"/>
                            <path id="Rectangle_33" d="M0 0h83.981v9.548a6.727 6.727 0 0 1-6.727 6.727H6.727A6.727 6.727 0 0 1 0 9.548V0z" class="cls-5" data-name="Rectangle 33" transform="translate(26.138 -4.602)"/>
                            <path id="Path_163" d="M1706.611 570.91c0 30.559-29.349 43.58-68.5 43.58-34.468 0-63.482-15.586-63.482-44.707l-13.544 31.039 57.521 25.692 93.952-12.024 6.046-37.252z" class="cls-34" data-name="Path 163" transform="translate(-1566.198 -578.191)"/>
                        </g>
                        <path id="Path_165" d="M1565.488 577.023h131.977c0 30.559-29.341 44.707-68.494 44.707-34.471 0-63.483-15.585-63.483-44.707z" class="cls-4" data-name="Path 165" transform="translate(-1565.488 -577.023)"/>
                    </g>
                </g>
                <path id="Path_167" d="M1832.2 517.5c0 105.946-78.375 191.831-184.321 191.831s-184.153-85.886-184.153-191.831 78.211-119.313 184.155-119.313S1832.2 411.554 1832.2 517.5z" class="cls-1" data-name="Path 167" transform="translate(-1463.726 -398.186)"/>
            </g>
            <path id="Path_168" d="M1511.29 357.917a1.556 1.556 0 0 1-1.584 2.661c-13.345-6.175-32.592-13.894-42.394-12.26a25.868 25.868 0 0 0-16.81 10.571 1.552 1.552 0 0 1-2.8-.714c-1.167-9.654-2.4-32.021 11.37-31.14 10.128.649 36.346 19.065 52.218 30.882z" class="cls-35" data-name="Path 168" transform="translate(-1402.658 -316.481)"/>
            <path id="Line_75" d="M0 0v151.791" class="cls-1" data-name="Line 75" transform="translate(471.336)"/>
            <g id="Group_134" data-name="Group 134" transform="translate(446.46)">
                <g id="Group_133" class="cls-36" data-name="Group 133" transform="translate(4.352 5.312)">
                    <circle id="Ellipse_76" cx="23.4" cy="23.4" r="23.4" class="cls-37" data-name="Ellipse 76" transform="translate(-2.875 -8.188)"/>
                </g>
                <circle id="Ellipse_79" cx="20.524" cy="20.524" r="20.524" class="cls-9" data-name="Ellipse 79" transform="translate(0 5.313)"/>
                <circle id="Ellipse_80" cx="20.524" cy="20.524" r="20.524" class="cls-1" data-name="Ellipse 80" transform="translate(4.352)"/>
            </g>
        </g>
    </g>
</svg>
